<svg xmlns="http://www.w3.org/2000/svg" viewBox="0 0 128 128">
  <defs>
    <linearGradient id="g" x1="0" x2="1" y1="0" y2="1">
      <stop offset="0%" stop-color="#60a5fa"/>
      <stop offset="100%" stop-color="#1d4ed8"/>
    </linearGradient>
  </defs>
  <rect x="10" y="10" width="108" height="108" rx="26" fill="#0b1120"/>
  <rect x="16" y="16" width="96" height="96" rx="22" fill="url(#g)"/>
  <path d="M54 26h20v18l10 8v50a6 6 0 0 1-6 6H50a6 6 0 0 1-6-6V52l10-8V26z" fill="#ffffff" opacity="0.96"/>
  <path d="M60 18h8l-3 16h-8l3-16z" fill="#fde047"/>
  <rect x="48" y="60" width="32" height="6" rx="3" fill="#1d4ed8"/>
  <rect x="48" y="72" width="32" height="6" rx="3" fill="#1d4ed8" opacity="0.9"/>
  <rect x="56" y="84" width="16" height="12" rx="4" fill="#0f172a"/>
</svg>
